PathFileType	4	(X/Y/Z)	C:/Users/opensim2020/Desktop/walking_exp_matlab/subject02_walking07_straight_01.trc																																																																																																																																																				
DataRate	CameraRate	NumFrames	NumMarkers	Units	OrigDataRate	OrigDataStartFrame	OrigNumFrames																																																																																																																																																
100	100	6	50	mm	100	648	176																																																																																																																																																
Frame#	Time	LFHD			RFHD			LBHD			RBHD			C7			T10			CLAV			STRN			RBAK			LSHO			LUPA			LELB			LFRM			LWRA			LWRB			LFIN			RSHO			RUPA			RELB			RFRM			RWRA			RWRB			RFIN			LASI			RASI			LPSI			RPSI			LTHI			LKNE			LTIB			LANK			LHEE			LTOE			RTHI			RKNE			RTIB			RANK			RHEE			RTOE			*39			*40			*41			*42			*43			*44			*45			*46			*47			*48			*49		
		X1	Y1	Z1	X2	Y2	Z2	X3	Y3	Z3	X4	Y4	Z4	X5	Y5	Z5	X6	Y6	Z6	X7	Y7	Z7	X8	Y8	Z8	X9	Y9	Z9	X10	Y10	Z10	X11	Y11	Z11	X12	Y12	Z12	X13	Y13	Z13	X14	Y14	Z14	X15	Y15	Z15	X16	Y16	Z16	X17	Y17	Z17	X18	Y18	Z18	X19	Y19	Z19	X20	Y20	Z20	X21	Y21	Z21	X22	Y22	Z22	X23	Y23	Z23	X24	Y24	Z24	X25	Y25	Z25	X26	Y26	Z26	X27	Y27	Z27	X28	Y28	Z28	X29	Y29	Z29	X30	Y30	Z30	X31	Y31	Z31	X32	Y32	Z32	X33	Y33	Z33	X34	Y34	Z34	X35	Y35	Z35	X36	Y36	Z36	X37	Y37	Z37	X38	Y38	Z38	X39	Y39	Z39	X40	Y40	Z40	X41	Y41	Z41	X42	Y42	Z42	X43	Y43	Z43	X44	Y44	Z44	X45	Y45	Z45	X46	Y46	Z46	X47	Y47	Z47	X48	Y48	Z48	X49	Y49	Z49	X50	Y50	Z50
																																																																																																																																																							
1	0	-956.26038	1716.7085	1364.7074	-968.04187	1694.38049	1506.86084	-1081.48499	1636.64453	1343.11914	-1105.99963	1612.10461	1482.70251	-1140.15173	1498.44714	1409.3009	-1201.56335	1225.35596	1411.28809	-1004.41565	1426.96289	1400.02576	-959.21497	1252.22668	1401.44836	-1206.90356	1325.03857	1465.49744	-1064.64172	1478.41565	1230.93066	-1038.24231	1284.16003	1139.66748	-993.07971	1147.49731	1122.02551	-910.05878	1042.19128	1131.16699	-800.37213	980.59009	1188.24084	-831.27808	950.04565	1152.82495	-775.34875	915.56744	1157.98181	-1070.77917	1454.61938	1596.97083	-1129.65466	1270.5979	1673.4845	-1135.86316	1125.80847	1695.17957	-1124.31934	1007.91803	1722.16638	-1090.83777	875.49969	1710.71265	-1138.93958	878.79688	1738.50928	-1110.8064	812.37225	1746.06897	-997.04352	951.61041	1264.41467	-969.34174	949.9317	1519.84741	-1194.51001	1005.94006	1367.34216	-1188.87073	1007.14484	1481.70667	-1116.32874	645.76038	1237.73865	-1186.27795	455.85641	1273.06702	-1294.60449	294.2626	1269.6803	-1363.08521	80.92516	1310.55432	-1413.23828	62.74662	1355.56494	-1215.40381	25.00599	1325.6698	-986.7785	657.72485	1616.62439	-920.87109	460.6496	1581.88757	-900.92352	275.12518	1599.09827	-850.74152	85.87082	1577.19568	-861.63342	23.65082	1522.21448	-691.37408	75.50304	1601.34644	-1067.95654	1775.32288	1447.10071	2845.08472	1034.06055	-3360.19385	NaN	NaN	NaN	NaN	NaN	NaN	NaN	NaN	NaN	NaN	NaN	NaN	NaN	NaN	NaN	NaN	NaN	NaN	NaN	NaN	NaN	NaN	NaN	NaN	NaN	NaN	NaN
2	0.01	-948.06689	1716.46204	1367.71216	-959.43286	1693.79517	1509.87195	-1072.85315	1635.74048	1346.24072	-1097.15601	1610.9541	1485.85315	-1130.91687	1497.33911	1412.58862	-1191.66675	1224.0835	1414.88721	-994.99274	1426.20642	1402.79333	-949.15442	1251.60925	1404.12036	-1197.01648	1323.79077	1468.99097	-1056.15967	1477.4541	1233.91565	-1031.35925	1282.80042	1142.94836	-988.04016	1145.82971	1125.21973	-907.11835	1038.5968	1133.00061	-798.2981	974.20453	1188.83484	-830.83386	944.45428	1153.21057	-775.28064	908.73724	1158.01465	-1060.77905	1453.61316	1599.98389	-1120.0166	1269.64587	1676.2627	-1126.83838	1124.93945	1697.5498	-1116.33411	1007.00269	1724.40015	-1084.06604	874.06299	1713.05029	-1132.19788	878.00629	1740.74646	-1104.90515	811.35278	1748.48975	-987.59723	950.53638	1266.78027	-958.27026	949.0647	1522.10168	-1184.45325	1005.12695	1370.91309	-1178.2157	1006.19293	1485.2981	-1109.12256	645.67053	1239.49512	-1179.60278	455.80692	1274.49194	-1290.25769	296.0242	1270.42126	-1361.9198	83.39096	1310.36023	-1412.19458	65.98107	1355.26807	-1215.42847	25.05031	1325.72754	-974.46191	656.9787	1618.47583	-910.93317	459.29382	1583.29663	-893.81836	273.09763	1599.29688	-847.10022	83.79137	1576.90625	-860.4198	23.98361	1521.91907	-687.81323	68.21798	1600.89648	-1059.95544	1774.36633	1450.3855	2845.24146	1033.88196	-3360.46021	NaN	NaN	NaN	NaN	NaN	NaN	NaN	NaN	NaN	NaN	NaN	NaN	NaN	NaN	NaN	NaN	NaN	NaN	NaN	NaN	NaN	NaN	NaN	NaN	NaN	NaN	NaN
3	0.02	-939.54712	1716.56104	1371.00586	-950.70923	1693.46338	1513.00525	-1064.13281	1634.99585	1349.44165	-1088.03918	1609.94873	1489.04919	-1121.68811	1496.45166	1415.95032	-1181.73035	1223.29614	1418.6272	-985.4248	1425.57629	1405.59692	-939.2962	1251.22046	1406.71179	-1186.99255	1322.89441	1472.37964	-1047.59021	1476.57068	1236.9469	-1024.09912	1281.83972	1146.51563	-982.66602	1144.05847	1128.5459	-904.14301	1034.85876	1135.14563	-796.56384	967.44666	1189.59961	-830.099	938.62195	1153.98083	-776.09351	901.57007	1157.73071	-1050.60474	1452.82959	1603.19446	-1110.24731	1268.86694	1679.17578	-1117.34839	1123.84058	1699.83484	-1108.07092	1006.15771	1726.75854	-1076.84363	872.93054	1715.46021	-1125.07031	877.3515	1743.07813	-1098.44629	810.39569	1750.81921	-977.81628	949.51172	1269.20129	-947.70697	948.18927	1524.3717	-1174.37488	1004.30817	1374.49207	-1167.49927	1005.38867	1488.83765	-1101.14685	645.2038	1241.4137	-1172.57666	455.93726	1275.90234	-1285.55603	297.88397	1271.20605	-1360.45203	86.23145	1310.02734	-1410.81006	69.75771	1354.84631	-1215.39575	25.16005	1325.77124	-962.05969	656.93622	1620.51563	-900.74213	459.13217	1586.0293	-886.3576	271.95087	1599.01709	-842.88678	83.47373	1577.70898	-858.70978	26.08716	1522.36182	-683.32477	59.01619	1601.47217	-1051.73877	1773.58008	1453.78345	2845.12842	1033.86829	-3360.25146	NaN	NaN	NaN	NaN	NaN	NaN	NaN	NaN	NaN	NaN	NaN	NaN	NaN	NaN	NaN	NaN	NaN	NaN	NaN	NaN	NaN	NaN	NaN	NaN	NaN	NaN	NaN
4	0.03	-931.14716	1716.76868	1374.03918	-941.86615	1693.71313	1516.19006	-1055.1322	1634.71094	1352.71057	-1078.75073	1609.38879	1492.31848	-1112.38147	1495.89063	1419.35034	-1171.84241	1223.20691	1422.24927	-975.75085	1425.29053	1408.51526	-929.80273	1251.0166	1409.20569	-1176.96521	1322.49377	1475.76831	-1038.88452	1476.0155	1239.89246	-1016.89948	1280.5907	1149.71277	-977.66449	1142.4176	1131.8772	-901.81287	1031.33826	1137.0719	-795.7644	961.04626	1189.99927	-830.67719	933.23938	1154.56348	-777.32043	894.57611	1157.60059	-1040.58325	1452.34277	1606.4292	-1100.22583	1268.23706	1682.21167	-1107.82043	1123.18335	1702.30127	-1099.52014	1005.47577	1729.14905	-1069.24731	872.05017	1717.84082	-1117.51416	876.79327	1745.3374	-1091.46228	809.50043	1753.03528	-967.89752	948.61835	1271.71985	-937.28558	947.68561	1526.81372	-1164.28027	1003.78168	1377.96643	-1156.75171	1005.22314	1492.31506	-1092.54431	644.82892	1243.55566	-1165.03821	456.22662	1277.45715	-1280.63977	300.15616	1272.203	-1358.71423	89.52533	1309.64148	-1409.64746	74.54407	1354.45117	-1215.22571	25.23943	1325.57214	-950.05823	657.94305	1622.59302	-890.07959	460.06049	1588.8031	-878.11041	272.59787	1600.9635	-838.09381	83.45127	1580.0553	-856.72595	27.72452	1524.11621	-678.95819	52.30601	1600.44702	-1043.6438	1773.41406	1457.39001	2845.823	1034.1554	-3357.23096	NaN	NaN	NaN	NaN	NaN	NaN	NaN	NaN	NaN	NaN	NaN	NaN	NaN	NaN	NaN	NaN	NaN	NaN	NaN	NaN	NaN	NaN	NaN	NaN	NaN	NaN	NaN
5	0.04	-922.44092	1717.76233	1377.54797	-933.02405	1694.14807	1519.47095	-1046.21741	1634.85583	1356.05237	-1069.49207	1609.23572	1495.68335	-1102.74268	1495.88196	1422.75964	-1161.94678	1223.13794	1425.6217	-966.13434	1425.49451	1411.45679	-919.47382	1251.34131	1412.30042	-1166.82654	1322.4552	1479.34778	-1030.04138	1475.78015	1242.76746	-1009.97943	1279.81128	1153.23242	-972.37189	1140.82837	1135.69873	-900.02997	1027.94617	1139.08105	-795.48615	954.09717	1190.77649	-830.9931	927.69244	1155.1405	-779.55121	887.60706	1157.05701	-1030.3374	1451.89038	1609.70496	-1090.10828	1267.82495	1685.2699	-1098.05176	1122.73059	1704.82153	-1090.65759	1005.00458	1731.61707	-1061.28528	871.32263	1720.13977	-1109.60425	876.48383	1747.58289	-1084.13831	809.08093	1755.34668	-957.74628	947.81927	1274.41833	-926.98187	947.50201	1529.32788	-1154.19592	1003.53461	1381.23657	-1146.07886	1005.91968	1495.65747	-1083.672	644.86792	1245.76367	-1156.90015	456.70938	1278.87939	-1275.10657	302.84174	1273.10205	-1356.7594	93.2208	1309.55688	-1407.47693	79.04202	1353.95728	-1214.97546	25.21578	1325.4657	-938.22968	659.65289	1625.21277	-878.65613	461.69806	1591.33289	-868.97705	274.4144	1604.91516	-833.60059	83.52211	1582.61389	-855.15912	29.05701	1526.1825	-675.16534	47.91943	1599.63513	-1035.27759	1773.32788	1460.71985	2845.12061	1034.15686	-3360.26587	NaN	NaN	NaN	NaN	NaN	NaN	NaN	NaN	NaN	NaN	NaN	NaN	NaN	NaN	NaN	NaN	NaN	NaN	NaN	NaN	NaN	NaN	NaN	NaN	NaN	NaN	NaN
6	0.05	-913.94946	1718.47021	1380.66394	-924.04175	1694.68201	1522.75098	-1037.11572	1635.14746	1359.39368	-1060.16858	1609.23376	1499.02454	-1092.79944	1496.19324	1426.21411	-1152.12097	1223.30554	1428.80713	-956.44507	1425.82092	1414.38513	-909.4751	1251.73022	1415.09363	-1156.64563	1322.54578	1482.95349	-1020.93311	1475.80872	1245.61182	-1002.71014	1279.07983	1156.7699	-967.54236	1139.66064	1139.28735	-898.4198	1024.48279	1141.20105	-795.58923	947.24219	1191.45056	-832.5542	922.39124	1155.84827	-782.01337	880.61798	1156.88318	-1019.70251	1451.78186	1613.15503	-1079.59766	1267.6261	1688.33728	-1087.95178	1122.55249	1707.43274	-1081.37708	1004.8197	1734.16638	-1052.84448	870.93219	1722.42639	-1101.15222	876.44086	1749.91028	-1076.33691	808.9173	1757.61499	-947.56281	947.21136	1277.16077	-916.6344	947.88647	1532.23828	-1143.83423	1003.63574	1384.1012	-1135.54004	1007.24805	1498.70618	-1074.09241	644.86444	1248.02856	-1148.16895	457.46518	1280.30737	-1269.00623	305.91019	1273.96191	-1354.38696	97.50957	1308.99231	-1405.33533	84.75681	1353.49719	-1214.75598	25.18497	1325.34436	-926.9104	661.56677	1627.98865	-866.50208	464.05032	1593.84387	-859.33215	276.40842	1608.22961	-829.98059	84.11832	1584.42957	-854.03723	30.13981	1527.92017	-672.65765	44.75333	1599.5188	-1026.89368	1773.66101	1464.32397	2845.22119	1034.07593	-3360.32202	NaN	NaN	NaN	NaN	NaN	NaN	NaN	NaN	NaN	NaN	NaN	NaN	NaN	NaN	NaN	NaN	NaN	NaN	NaN	NaN	NaN	NaN	NaN	NaN	NaN	NaN	NaN
